<?xml version="1.0" encoding="UTF-8" standalone="no"?>
<!-- Created with Inkscape (http://www.inkscape.org/) -->

<svg
   xmlns:dc="http://purl.org/dc/elements/1.1/"
   xmlns:cc="http://creativecommons.org/ns#"
   xmlns:rdf="http://www.w3.org/1999/02/22-rdf-syntax-ns#"
   xmlns:svg="http://www.w3.org/2000/svg"
   xmlns="http://www.w3.org/2000/svg"
   xmlns:sodipodi="http://sodipodi.sourceforge.net/DTD/sodipodi-0.dtd"
   xmlns:inkscape="http://www.inkscape.org/namespaces/inkscape"
   width="210mm"
   height="297mm"
   viewBox="0 0 210 297"
   version="1.1"
   id="svg821"
   inkscape:version="0.92.4 (5da689c313, 2019-01-14)"
   sodipodi:docname="main.svg">
  <defs
     id="defs815" />
  <sodipodi:namedview
     id="base"
     pagecolor="#ffffff"
     bordercolor="#666666"
     borderopacity="1.0"
     inkscape:pageopacity="0.0"
     inkscape:pageshadow="2"
     inkscape:zoom="5.6"
     inkscape:cx="106.03745"
     inkscape:cy="1039.8147"
     inkscape:document-units="mm"
     inkscape:current-layer="layer1"
     showgrid="false"
     inkscape:window-width="1920"
     inkscape:window-height="1057"
     inkscape:window-x="-8"
     inkscape:window-y="-8"
     inkscape:window-maximized="1"
     inkscape:lockguides="true" />
  <metadata
     id="metadata818">
    <rdf:RDF>
      <cc:Work
         rdf:about="">
        <dc:format>image/svg+xml</dc:format>
        <dc:type
           rdf:resource="http://purl.org/dc/dcmitype/StillImage" />
        <dc:title />
      </cc:Work>
    </rdf:RDF>
  </metadata>
  <g
     inkscape:label="Layer 1"
     inkscape:groupmode="layer"
     id="layer1">
    <rect
       style="opacity:1;fill:#ff3d3d;fill-opacity:0.98431373;stroke:#ffffff;stroke-width:0.065;stroke-linecap:round;stroke-linejoin:round;stroke-miterlimit:4;stroke-dasharray:none;stroke-dashoffset:0;stroke-opacity:1;paint-order:normal"
       id="rect1709"
       width="34.377544"
       height="10.95805"
       x="1.2452112"
       y="25.003637" />
    <rect
       style="opacity:1;fill:#ffffff;fill-opacity:0;stroke:none;stroke-width:0.62975633;stroke-linecap:round;stroke-linejoin:round;stroke-miterlimit:4;stroke-dasharray:none;stroke-dashoffset:0;stroke-opacity:1;paint-order:stroke fill markers"
       id="rect846"
       width="8.3879995"
       height="8.3879995"
       x="2.3374081"
       y="11.413016"
       inkscape:export-xdpi="436.70001"
       inkscape:export-ydpi="436.70001" />
    <path
       d="m 10.198319,17.704127 -3.6323023,2.097111 -3.632302,-2.097111 0,-4.194221 3.632302,-2.09711 3.6323023,2.09711 z"
       inkscape:randomized="0"
       inkscape:rounded="-1.249e-16"
       inkscape:flatsided="true"
       sodipodi:arg2="1.0471976"
       sodipodi:arg1="0.52359878"
       sodipodi:r2="1.8649898"
       sodipodi:r1="4.194221"
       sodipodi:cy="15.607017"
       sodipodi:cx="6.5660167"
       sodipodi:sides="6"
       id="path840"
       style="opacity:1;fill:#ff3d3d;fill-opacity:0.98431373;stroke:none;stroke-width:0.53399998;stroke-linecap:round;stroke-linejoin:round;stroke-miterlimit:4;stroke-dasharray:none;stroke-dashoffset:0;stroke-opacity:1;paint-order:stroke fill markers"
       sodipodi:type="star"
       inkscape:export-xdpi="436.70001"
       inkscape:export-ydpi="436.70001" />
    <path
       sodipodi:type="star"
       style="opacity:1;fill:#000000;fill-opacity:1;stroke:none;stroke-width:0.53399998;stroke-linecap:round;stroke-linejoin:round;stroke-miterlimit:4;stroke-dasharray:none;stroke-dashoffset:0;stroke-opacity:1;paint-order:stroke fill markers"
       id="path1378"
       sodipodi:sides="6"
       sodipodi:cx="6.5437123"
       sodipodi:cy="5.6512268"
       sodipodi:r1="4.194221"
       sodipodi:r2="1.8649898"
       sodipodi:arg1="0.52359878"
       sodipodi:arg2="1.0471976"
       inkscape:flatsided="true"
       inkscape:rounded="-1.249e-16"
       inkscape:randomized="0"
       d="M 10.176014,7.7483375 6.5437121,9.845448 2.9114102,7.7483375 l 0,-4.194221 3.632302,-2.0971105 3.6323018,2.0971105 z" />
    <text
       xml:space="preserve"
       style="font-style:normal;font-variant:normal;font-weight:normal;font-stretch:normal;font-size:4.59626818px;line-height:1.25;font-family:'Roboto Mono';-inkscape-font-specification:'Roboto Mono';letter-spacing:0px;word-spacing:0px;fill:#ffffff;fill-opacity:1;stroke:none;stroke-width:0.11490671"
       x="3.8811123"
       y="7.0211263"
       id="text1382"><tspan
         sodipodi:role="line"
         id="tspan1380"
         x="3.8811123"
         y="7.0211263"
         style="font-style:normal;font-variant:normal;font-weight:normal;font-stretch:normal;font-family:'Roboto Mono';-inkscape-font-specification:'Roboto Mono';fill:#ffffff;fill-opacity:1;stroke-width:0.11490671">8_</tspan></text>
    <path
       style="opacity:1;fill:#70b0f0;fill-opacity:1;stroke:none;stroke-width:2.01826763;stroke-linecap:round;stroke-linejoin:round;stroke-miterlimit:4;stroke-dasharray:none;stroke-dashoffset:0;stroke-opacity:1;paint-order:stroke fill markers"
       d="M 65.267578 21.359375 L 51.539062 13.433594 L 51.539062 29.285156 L 65.267578 21.359375 z "
       id="path5113"
       transform="scale(0.26458333)"
       inkscape:export-xdpi="436.70001"
       inkscape:export-ydpi="436.70001" />
    <path
       style="opacity:1;fill:#70b0f0;fill-opacity:1;stroke:none;stroke-width:2.01826763;stroke-linecap:round;stroke-linejoin:round;stroke-miterlimit:4;stroke-dasharray:none;stroke-dashoffset:0;stroke-opacity:1;paint-order:stroke fill markers"
       d="M 65.267578 21.359375 L 51.539062 29.285156 L 65.267578 37.210938 L 65.267578 21.359375 z "
       id="path5111"
       transform="scale(0.26458333)"
       inkscape:export-xdpi="436.70001"
       inkscape:export-ydpi="436.70001" />
    <path
       style="opacity:1;fill:#70b0f0;fill-opacity:1;stroke:none;stroke-width:2.01826763;stroke-linecap:round;stroke-linejoin:round;stroke-miterlimit:4;stroke-dasharray:none;stroke-dashoffset:0;stroke-opacity:1;paint-order:stroke fill markers"
       d="M 65.267578 21.359375 L 65.267578 37.210938 L 78.996094 29.285156 L 65.267578 21.359375 z "
       id="path5109"
       transform="scale(0.26458333)"
       inkscape:export-xdpi="436.70001"
       inkscape:export-ydpi="436.70001" />
    <path
       style="opacity:1;fill:#ff90d0;fill-opacity:1;stroke:none;stroke-width:2.01826763;stroke-linecap:round;stroke-linejoin:round;stroke-miterlimit:4;stroke-dasharray:none;stroke-dashoffset:0;stroke-opacity:1;paint-order:stroke fill markers"
       d="M 65.267578 21.359375 L 78.996094 29.285156 L 78.996094 13.433594 L 65.267578 21.359375 z "
       id="path5107"
       transform="scale(0.26458333)"
       inkscape:export-xdpi="436.70001"
       inkscape:export-ydpi="436.70001" />
    <path
       style="opacity:1;fill:#ff90d0;fill-opacity:1;stroke:none;stroke-width:2.01826763;stroke-linecap:round;stroke-linejoin:round;stroke-miterlimit:4;stroke-dasharray:none;stroke-dashoffset:0;stroke-opacity:1;paint-order:stroke fill markers"
       d="M 65.267578 5.5058594 L 51.539062 13.433594 L 65.267578 21.359375 L 65.267578 5.5058594 z "
       id="path5105"
       transform="scale(0.26458333)"
       inkscape:export-xdpi="436.70001"
       inkscape:export-ydpi="436.70001" />
    <path
       style="opacity:1;fill:#ff90d0;fill-opacity:1;stroke:none;stroke-width:2.01826763;stroke-linecap:round;stroke-linejoin:round;stroke-miterlimit:4;stroke-dasharray:none;stroke-dashoffset:0;stroke-opacity:1;paint-order:stroke fill markers"
       d="M 65.267578 5.5058594 L 65.267578 21.359375 L 78.996094 13.433594 L 65.267578 5.5058594 z "
       id="path5095"
       transform="scale(0.26458333)"
       inkscape:export-xdpi="436.70001"
       inkscape:export-ydpi="436.70001" />
    <text
       id="text5117"
       y="7.0211263"
       x="14.582563"
       style="font-style:normal;font-variant:normal;font-weight:normal;font-stretch:normal;font-size:4.59626818px;line-height:1.25;font-family:'Roboto Mono';-inkscape-font-specification:'Roboto Mono';letter-spacing:0px;word-spacing:0px;fill:#ffffff;fill-opacity:1;stroke:none;stroke-width:0.11490671"
       xml:space="preserve"
       inkscape:export-xdpi="436.70001"
       inkscape:export-ydpi="436.70001"><tspan
         style="font-style:normal;font-variant:normal;font-weight:normal;font-stretch:normal;font-family:'Roboto Mono';-inkscape-font-specification:'Roboto Mono';fill:#ffffff;fill-opacity:1;stroke-width:0.11490671"
         y="7.0211263"
         x="14.582563"
         id="tspan5115"
         sodipodi:role="line">8_</tspan></text>
    <g
       id="g855"
       transform="translate(-0.14166604,0.02377278)"
       inkscape:export-xdpi="436.70001"
       inkscape:export-ydpi="436.70001">
      <path
         inkscape:connector-curvature="0"
         style="opacity:1;fill:#70b0f0;fill-opacity:1;stroke:none;stroke-width:0.53399998;stroke-linecap:round;stroke-linejoin:round;stroke-miterlimit:4;stroke-dasharray:none;stroke-dashoffset:0;stroke-opacity:1;paint-order:stroke fill markers"
         d="M 28.891481,5.6513346 25.259145,3.554305 v 4.1940591 z"
         id="path831"
         inkscape:export-xdpi="436.70001"
         inkscape:export-ydpi="436.70001" />
      <path
         inkscape:connector-curvature="0"
         style="opacity:1;fill:#70b0f0;fill-opacity:1;stroke:none;stroke-width:0.53399998;stroke-linecap:round;stroke-linejoin:round;stroke-miterlimit:4;stroke-dasharray:none;stroke-dashoffset:0;stroke-opacity:1;paint-order:stroke fill markers"
         d="m 28.891481,5.6513346 -3.632336,2.0970295 3.632336,2.0970298 z"
         id="path833"
         inkscape:export-xdpi="436.70001"
         inkscape:export-ydpi="436.70001" />
      <path
         inkscape:connector-curvature="0"
         style="opacity:1;fill:#70b0f0;fill-opacity:1;stroke:none;stroke-width:0.53399998;stroke-linecap:round;stroke-linejoin:round;stroke-miterlimit:4;stroke-dasharray:none;stroke-dashoffset:0;stroke-opacity:1;paint-order:stroke fill markers"
         d="M 28.891481,5.6513346 V 9.8453939 L 32.523818,7.7483641 Z"
         id="path835"
         inkscape:export-xdpi="436.70001"
         inkscape:export-ydpi="436.70001" />
      <path
         inkscape:connector-curvature="0"
         style="opacity:1;fill:#ff90d0;fill-opacity:1;stroke:none;stroke-width:0.53399998;stroke-linecap:round;stroke-linejoin:round;stroke-miterlimit:4;stroke-dasharray:none;stroke-dashoffset:0;stroke-opacity:1;paint-order:stroke fill markers"
         d="m 28.891481,5.6513346 3.632337,2.0970295 V 3.554305 Z"
         id="path837"
         inkscape:export-xdpi="436.70001"
         inkscape:export-ydpi="436.70001" />
      <path
         inkscape:connector-curvature="0"
         style="opacity:1;fill:#ff90d0;fill-opacity:1;stroke:none;stroke-width:0.53399998;stroke-linecap:round;stroke-linejoin:round;stroke-miterlimit:4;stroke-dasharray:none;stroke-dashoffset:0;stroke-opacity:1;paint-order:stroke fill markers"
         d="M 28.891481,1.4567586 25.259145,3.554305 28.891481,5.6513346 Z"
         id="path839"
         inkscape:export-xdpi="436.70001"
         inkscape:export-ydpi="436.70001" />
      <path
         inkscape:connector-curvature="0"
         style="opacity:1;fill:#ff90d0;fill-opacity:1;stroke:none;stroke-width:0.53399998;stroke-linecap:round;stroke-linejoin:round;stroke-miterlimit:4;stroke-dasharray:none;stroke-dashoffset:0;stroke-opacity:1;paint-order:stroke fill markers"
         d="m 28.891481,1.4567586 v 4.194576 L 32.523818,3.554305 Z"
         id="path841"
         inkscape:export-xdpi="436.70001"
         inkscape:export-ydpi="436.70001" />
    </g>
    <rect
       style="opacity:1;fill:#000000;fill-opacity:0;stroke:none;stroke-width:0.53108197;stroke-linecap:round;stroke-linejoin:round;stroke-miterlimit:4;stroke-dasharray:none;stroke-dashoffset:0;stroke-opacity:1;paint-order:stroke fill markers"
       id="rect847"
       width="8.598958"
       height="8.598958"
       x="24.450336"
       y="1.37537"
       inkscape:export-xdpi="436.70001"
       inkscape:export-ydpi="436.70001" />
    <path
       style="font-style:normal;font-variant:normal;font-weight:bold;font-stretch:normal;font-size:4.59626818px;line-height:1.25;font-family:'Roboto Mono';-inkscape-font-specification:'Roboto Mono Bold';letter-spacing:0px;word-spacing:0px;fill:#ffffff;fill-opacity:0.98431373;stroke:none;stroke-width:0.34679678;stroke-linecap:butt;stroke-linejoin:miter;stroke-miterlimit:4;stroke-dasharray:none;stroke-opacity:1;paint-order:stroke fill markers"
       d="m 6.4896518,12.790135 c -0.2483285,0 -0.4780553,0.03363 -0.6887582,0.101356 -0.2081944,0.06521 -0.387509,0.163262 -0.5380114,0.293697 -0.1530098,0.130426 -0.272523,0.291061 -0.3578076,0.481697 -0.085285,0.188128 -0.1273561,0.406642 -0.1273561,0.65497 0,0.135451 0.01773,0.264354 0.052849,0.387266 0.037625,0.122905 0.089953,0.235905 0.157678,0.338747 0.06271,0.09783 0.1392844,0.186574 0.2295861,0.26684 0.092809,0.08027 0.1955487,0.149369 0.308425,0.207061 -0.1329433,0.0627 -0.2534133,0.139289 -0.3612731,0.229584 -0.1053511,0.08779 -0.19592,0.186795 -0.2711717,0.297164 -0.07525,0.112887 -0.1340947,0.237083 -0.1767378,0.372536 -0.040133,0.132939 -0.059779,0.274882 -0.059779,0.425384 0,0.258363 0.045808,0.485307 0.1386185,0.680961 0.095318,0.195653 0.2260432,0.35906 0.3915957,0.489495 0.1655524,0.132939 0.3598173,0.232901 0.5830624,0.300627 0.2257533,0.06772 0.4694733,0.101368 0.7303438,0.101368 0.2583619,0 0.4993017,-0.03364 0.7225463,-0.101368 0.2232451,-0.06772 0.4175102,-0.167679 0.5830622,-0.300627 0.1630441,-0.130427 0.2909891,-0.293842 0.3837989,-0.489495 0.095318,-0.195654 0.1429496,-0.422598 0.1429496,-0.680961 0,-0.195653 -0.033639,-0.37679 -0.1013643,-0.542344 -0.067726,-0.165552 -0.1620328,-0.310361 -0.2824348,-0.435779 -0.065218,-0.07024 -0.1390131,-0.132815 -0.2217889,-0.188 -0.082776,-0.05769 -0.1705647,-0.109928 -0.2633743,-0.155079 0.1028428,-0.05267 0.1953258,-0.113441 0.2781023,-0.183668 0.085285,-0.07275 0.1590794,-0.151142 0.2217889,-0.233919 0.080269,-0.110374 0.1418939,-0.229974 0.1845356,-0.360407 0.045152,-0.132938 0.067576,-0.274883 0.067578,-0.425385 -6e-7,-0.248328 -0.043895,-0.466842 -0.1316872,-0.65497 -0.085286,-0.19063 -0.2039324,-0.351255 -0.3569432,-0.48169 -0.1555189,-0.130435 -0.338571,-0.22848 -0.549274,-0.293698 -0.210703,-0.06773 -0.44043,-0.101368 -0.6887586,-0.101368 z m -0.00434,0.846435 c 0.1078599,0 0.2039897,0.01773 0.2867658,0.05285 0.085285,0.03511 0.1572558,0.08457 0.2174568,0.147288 0.057691,0.06521 0.10341,0.142757 0.1360183,0.233052 0.03261,0.09029 0.048516,0.190255 0.048516,0.300627 0,0.110374 -0.015906,0.212152 -0.048516,0.304959 -0.030101,0.09029 -0.073994,0.167831 -0.1316872,0.233053 -0.057691,0.06521 -0.1277491,0.116569 -0.2105261,0.154211 -0.082776,0.03511 -0.1770828,0.05285 -0.2824343,0.05285 -0.1053511,0 -0.2006147,-0.01773 -0.2858995,-0.05285 -0.082776,-0.03763 -0.1528342,-0.089 -0.2105265,-0.154211 -0.0602,-0.06521 -0.1059184,-0.142757 -0.1360183,-0.233053 -0.030101,-0.09281 -0.045051,-0.194592 -0.045051,-0.304959 0,-0.112886 0.013995,-0.21466 0.041587,-0.304959 0.030101,-0.09281 0.073994,-0.170344 0.1316872,-0.233052 0.055184,-0.0627 0.1242843,-0.110343 0.2070609,-0.142942 0.082776,-0.03511 0.1762164,-0.05285 0.2815682,-0.05285 z m 0.0078,2.321853 c 0.1204017,0 0.2287017,0.0187 0.3240198,0.0563 0.097827,0.03763 0.1818776,0.09177 0.2521115,0.16201 0.067725,0.07275 0.1200517,0.158703 0.1576781,0.259043 0.037626,0.100343 0.056314,0.213329 0.056314,0.338748 0,0.125417 -0.019646,0.238413 -0.059779,0.338746 -0.037625,0.09784 -0.090819,0.181882 -0.1585444,0.252113 -0.070235,0.07024 -0.1524627,0.124385 -0.2477794,0.162008 -0.095318,0.03511 -0.2008374,0.05285 -0.3162226,0.05285 -0.1178939,0 -0.22437,-0.01677 -0.3196877,-0.04938 -0.095318,-0.03511 -0.1774547,-0.08466 -0.2451811,-0.149878 -0.072742,-0.06772 -0.1288064,-0.153592 -0.1689405,-0.256444 -0.040133,-0.102835 -0.060645,-0.21957 -0.060645,-0.350011 0,-0.125417 0.019554,-0.238413 0.057181,-0.338747 0.037625,-0.100344 0.089953,-0.186299 0.1576777,-0.259043 0.067725,-0.07023 0.1489963,-0.124385 0.2443145,-0.162011 0.097827,-0.03762 0.2070838,-0.0563 0.3274851,-0.0563 z"
       id="path851"
       inkscape:export-xdpi="436.70001"
       inkscape:export-ydpi="436.70001"
       inkscape:connector-curvature="0"
       sodipodi:nodetypes="ccccscccccccscccscccscccccccccccccccccscccscccscccccccccscccscccsccccc" />
    <path
       inkscape:export-ydpi="436.70001"
       inkscape:export-xdpi="436.70001"
       sodipodi:type="star"
       style="opacity:1;fill:none;fill-opacity:0.98431373;stroke:#808080;stroke-width:0.1;stroke-linecap:round;stroke-linejoin:round;stroke-miterlimit:4;stroke-dasharray:none;stroke-dashoffset:0;stroke-opacity:1;paint-order:stroke fill markers"
       id="path844"
       sodipodi:sides="6"
       sodipodi:cx="17.423841"
       sodipodi:cy="15.607017"
       sodipodi:r1="4.194221"
       sodipodi:r2="1.8649898"
       sodipodi:arg1="0.52359878"
       sodipodi:arg2="1.0471976"
       inkscape:flatsided="true"
       inkscape:rounded="-1.249e-16"
       inkscape:randomized="0"
       d="m 21.056143,17.704127 -3.632302,2.097111 -3.632301,-2.097111 0,-4.194221 3.632301,-2.09711 3.632302,2.09711 z" />
    <path
       sodipodi:nodetypes="ccccscccccccscccscccscccccccccccccccccscccscccscccccccccscccscccsccccc"
       inkscape:connector-curvature="0"
       inkscape:export-ydpi="436.70001"
       inkscape:export-xdpi="436.70001"
       id="path846"
       d="m 17.347476,12.790135 c -0.248328,0 -0.478055,0.03363 -0.688758,0.101356 -0.208194,0.06521 -0.387509,0.163262 -0.538011,0.293697 -0.15301,0.130426 -0.272523,0.291061 -0.357808,0.481697 -0.08529,0.188128 -0.127356,0.406642 -0.127356,0.65497 0,0.135451 0.01773,0.264354 0.05285,0.387266 0.03763,0.122905 0.08995,0.235905 0.157678,0.338747 0.06271,0.09783 0.139284,0.186574 0.229586,0.26684 0.09281,0.08027 0.195549,0.149369 0.308425,0.207061 -0.132943,0.0627 -0.253413,0.139289 -0.361273,0.229584 -0.105351,0.08779 -0.19592,0.186795 -0.271172,0.297164 -0.07525,0.112887 -0.134094,0.237083 -0.176737,0.372536 -0.04013,0.132939 -0.05978,0.274882 -0.05978,0.425384 0,0.258363 0.04581,0.485307 0.138618,0.680961 0.09532,0.195653 0.226043,0.35906 0.391596,0.489495 0.165552,0.132939 0.359817,0.232901 0.583062,0.300627 0.225753,0.06772 0.469473,0.101368 0.730344,0.101368 0.258362,0 0.499302,-0.03364 0.722546,-0.101368 0.223245,-0.06772 0.41751,-0.167679 0.583062,-0.300627 0.163045,-0.130427 0.29099,-0.293842 0.383799,-0.489495 0.09532,-0.195654 0.14295,-0.422598 0.14295,-0.680961 0,-0.195653 -0.03364,-0.37679 -0.101364,-0.542344 -0.06773,-0.165552 -0.162033,-0.310361 -0.282435,-0.435779 -0.06522,-0.07024 -0.139013,-0.132815 -0.221789,-0.188 -0.08278,-0.05769 -0.170565,-0.109928 -0.263374,-0.155079 0.102842,-0.05267 0.195325,-0.113441 0.278102,-0.183668 0.08528,-0.07275 0.159079,-0.151142 0.221789,-0.233919 0.08027,-0.110374 0.141894,-0.229974 0.184535,-0.360407 0.04515,-0.132938 0.06758,-0.274883 0.06758,-0.425385 0,-0.248328 -0.04389,-0.466842 -0.131687,-0.65497 -0.08529,-0.19063 -0.203932,-0.351255 -0.356943,-0.48169 -0.155519,-0.130435 -0.338571,-0.22848 -0.549274,-0.293698 -0.210703,-0.06773 -0.44043,-0.101368 -0.688759,-0.101368 z m -0.0043,0.846435 c 0.10786,0 0.20399,0.01773 0.286766,0.05285 0.08528,0.03511 0.157256,0.08457 0.217457,0.147288 0.05769,0.06521 0.10341,0.142757 0.136018,0.233052 0.03261,0.09029 0.04852,0.190255 0.04852,0.300627 0,0.110374 -0.01591,0.212152 -0.04852,0.304959 -0.0301,0.09029 -0.07399,0.167831 -0.131687,0.233053 -0.05769,0.06521 -0.127749,0.116569 -0.210526,0.154211 -0.08278,0.03511 -0.177083,0.05285 -0.282434,0.05285 -0.105351,0 -0.200615,-0.01773 -0.2859,-0.05285 -0.08278,-0.03763 -0.152834,-0.089 -0.210526,-0.154211 -0.0602,-0.06521 -0.105919,-0.142757 -0.136019,-0.233053 -0.0301,-0.09281 -0.04505,-0.194592 -0.04505,-0.304959 0,-0.112886 0.014,-0.21466 0.04159,-0.304959 0.0301,-0.09281 0.07399,-0.170344 0.131688,-0.233052 0.05518,-0.0627 0.124284,-0.110343 0.20706,-0.142942 0.08278,-0.03511 0.176217,-0.05285 0.281569,-0.05285 z m 0.0078,2.321853 c 0.120402,0 0.228702,0.0187 0.32402,0.0563 0.09783,0.03763 0.181878,0.09177 0.252112,0.16201 0.06773,0.07275 0.120051,0.158703 0.157678,0.259043 0.03763,0.100343 0.05631,0.213329 0.05631,0.338748 0,0.125417 -0.01965,0.238413 -0.05978,0.338746 -0.03763,0.09784 -0.09082,0.181882 -0.158545,0.252113 -0.07024,0.07024 -0.152462,0.124385 -0.247779,0.162008 -0.09532,0.03511 -0.200837,0.05285 -0.316223,0.05285 -0.117894,0 -0.22437,-0.01677 -0.319687,-0.04938 -0.09532,-0.03511 -0.177455,-0.08466 -0.245181,-0.149878 -0.07274,-0.06772 -0.128807,-0.153592 -0.168941,-0.256444 -0.04013,-0.102835 -0.06065,-0.21957 -0.06065,-0.350011 0,-0.125417 0.01955,-0.238413 0.05718,-0.338747 0.03762,-0.100344 0.08995,-0.186299 0.157678,-0.259043 0.06772,-0.07023 0.148996,-0.124385 0.244314,-0.162011 0.09783,-0.03762 0.207084,-0.0563 0.327485,-0.0563 z"
       style="font-style:normal;font-variant:normal;font-weight:bold;font-stretch:normal;font-size:4.59626818px;line-height:1.25;font-family:'Roboto Mono';-inkscape-font-specification:'Roboto Mono Bold';letter-spacing:0px;word-spacing:0px;fill:none;fill-opacity:0.98431373;stroke:#808080;stroke-width:0.1;stroke-linecap:butt;stroke-linejoin:miter;stroke-miterlimit:4;stroke-dasharray:none;stroke-opacity:1;paint-order:stroke fill markers" />
    <g
       id="g1720"
       transform="translate(0,0.04008102)">
      <rect
         style="opacity:1;fill:#ffffff;fill-opacity:0;stroke:none;stroke-width:0.62975633;stroke-linecap:round;stroke-linejoin:round;stroke-miterlimit:4;stroke-dasharray:none;stroke-dashoffset:0;stroke-opacity:1;paint-order:stroke fill markers"
         id="rect1679"
         width="8.3879995"
         height="8.3879995"
         x="2.3374081"
         y="26.248581"
         inkscape:export-xdpi="436.70001"
         inkscape:export-ydpi="436.70001" />
      <path
         d="m 10.198319,32.539692 -3.6323023,2.09711 -3.632302,-2.09711 0,-4.194221 3.632302,-2.097111 3.6323023,2.097111 z"
         inkscape:randomized="0"
         inkscape:rounded="-1.249e-16"
         inkscape:flatsided="true"
         sodipodi:arg2="1.0471976"
         sodipodi:arg1="0.52359878"
         sodipodi:r2="1.8649898"
         sodipodi:r1="4.194221"
         sodipodi:cy="30.442581"
         sodipodi:cx="6.5660167"
         sodipodi:sides="6"
         id="path1681"
         style="opacity:1;fill:#ffffff;fill-opacity:1;stroke:none;stroke-width:0.53399998;stroke-linecap:round;stroke-linejoin:round;stroke-miterlimit:4;stroke-dasharray:none;stroke-dashoffset:0;stroke-opacity:1;paint-order:stroke fill markers"
         sodipodi:type="star"
         inkscape:export-xdpi="436.70001"
         inkscape:export-ydpi="436.70001" />
      <text
         id="text1687"
         y="32.514576"
         x="12.446027"
         style="font-style:normal;font-variant:normal;font-weight:bold;font-stretch:normal;font-size:5.85309315px;line-height:1.25;font-family:'Avenir Next LT Pro';-inkscape-font-specification:'Avenir Next LT Pro Bold';letter-spacing:0px;word-spacing:0px;fill:#ffffff;fill-opacity:1;stroke:none;stroke-width:0.14632735"
         xml:space="preserve"><tspan
           style="font-style:normal;font-variant:normal;font-weight:bold;font-stretch:normal;font-family:'Avenir Next LT Pro';-inkscape-font-specification:'Avenir Next LT Pro Bold';fill:#ffffff;fill-opacity:1;stroke-width:0.14632735"
           y="32.514576"
           x="12.446027"
           id="tspan1685"
           sodipodi:role="line">OCTOS</tspan></text>
      <path
         style="font-style:normal;font-variant:normal;font-weight:bold;font-stretch:normal;font-size:4.59626818px;line-height:1.25;font-family:'Roboto Mono';-inkscape-font-specification:'Roboto Mono Bold';letter-spacing:0px;word-spacing:0px;fill:#ff3d3d;fill-opacity:0.98431373;stroke:none;stroke-width:0.34679678;stroke-linecap:butt;stroke-linejoin:miter;stroke-miterlimit:4;stroke-dasharray:none;stroke-opacity:1;paint-order:stroke fill markers"
         d="m 6.4896518,27.590185 c -0.2483285,0 -0.4780553,0.03363 -0.6887582,0.101356 -0.2081944,0.06521 -0.387509,0.163262 -0.5380114,0.293697 -0.1530098,0.130426 -0.272523,0.291061 -0.3578076,0.481697 -0.085285,0.188128 -0.1273561,0.406642 -0.1273561,0.65497 0,0.135451 0.01773,0.264354 0.052849,0.387266 0.037625,0.122905 0.089953,0.235905 0.157678,0.338747 0.06271,0.09783 0.1392844,0.186574 0.2295861,0.26684 0.092809,0.08027 0.1955487,0.149369 0.308425,0.207061 -0.1329433,0.0627 -0.2534133,0.139289 -0.3612731,0.229584 -0.1053511,0.08779 -0.19592,0.186795 -0.2711717,0.297164 -0.07525,0.112887 -0.1340947,0.237083 -0.1767378,0.372536 -0.040133,0.132939 -0.059779,0.274882 -0.059779,0.425384 0,0.258363 0.045808,0.485307 0.1386185,0.680961 0.095318,0.195653 0.2260432,0.35906 0.3915957,0.489495 0.1655524,0.132939 0.3598173,0.232901 0.5830624,0.300627 0.2257533,0.06772 0.4694733,0.101368 0.7303438,0.101368 0.2583619,0 0.4993017,-0.03364 0.7225463,-0.101368 0.2232451,-0.06772 0.4175102,-0.167679 0.5830622,-0.300627 0.1630441,-0.130427 0.2909891,-0.293842 0.3837989,-0.489495 0.095318,-0.195654 0.1429496,-0.422598 0.1429496,-0.680961 0,-0.195653 -0.033639,-0.37679 -0.1013643,-0.542344 -0.067726,-0.165552 -0.1620328,-0.310361 -0.2824348,-0.435779 -0.065218,-0.07024 -0.1390131,-0.132815 -0.2217889,-0.188 -0.082776,-0.05769 -0.1705647,-0.109928 -0.2633743,-0.155079 0.1028428,-0.05267 0.1953258,-0.113441 0.2781023,-0.183668 0.085285,-0.07275 0.1590794,-0.151142 0.2217889,-0.233919 0.080269,-0.110374 0.1418939,-0.229974 0.1845356,-0.360407 0.045152,-0.132938 0.067576,-0.274883 0.067578,-0.425385 -6e-7,-0.248328 -0.043895,-0.466842 -0.1316872,-0.65497 -0.085286,-0.19063 -0.2039324,-0.351255 -0.3569432,-0.48169 -0.1555189,-0.130435 -0.338571,-0.22848 -0.549274,-0.293698 -0.210703,-0.06773 -0.44043,-0.101368 -0.6887586,-0.101368 z m -0.00434,0.846435 c 0.1078599,0 0.2039897,0.01773 0.2867658,0.05285 0.085285,0.03511 0.1572558,0.08457 0.2174568,0.147288 0.057691,0.06521 0.10341,0.142757 0.1360183,0.233052 0.03261,0.09029 0.048516,0.190255 0.048516,0.300627 0,0.110374 -0.015906,0.212152 -0.048516,0.304959 -0.030101,0.09029 -0.073994,0.167831 -0.1316872,0.233053 -0.057691,0.06521 -0.1277491,0.116569 -0.2105261,0.154211 -0.082776,0.03511 -0.1770828,0.05285 -0.2824343,0.05285 -0.1053511,0 -0.2006147,-0.01773 -0.2858995,-0.05285 -0.082776,-0.03763 -0.1528342,-0.089 -0.2105265,-0.154211 -0.0602,-0.06521 -0.1059184,-0.142757 -0.1360183,-0.233053 -0.030101,-0.09281 -0.045051,-0.194592 -0.045051,-0.304959 0,-0.112886 0.013995,-0.21466 0.041587,-0.304959 0.030101,-0.09281 0.073994,-0.170344 0.1316872,-0.233052 0.055184,-0.0627 0.1242843,-0.110343 0.2070609,-0.142942 0.082776,-0.03511 0.1762164,-0.05285 0.2815682,-0.05285 z m 0.0078,2.321853 c 0.1204017,0 0.2287017,0.0187 0.3240198,0.0563 0.097827,0.03763 0.1818776,0.09177 0.2521115,0.16201 0.067725,0.07275 0.1200517,0.158703 0.1576781,0.259043 0.037626,0.100343 0.056314,0.213329 0.056314,0.338748 0,0.125417 -0.019646,0.238413 -0.059779,0.338746 -0.037625,0.09784 -0.090819,0.181882 -0.1585444,0.252113 -0.070235,0.07024 -0.1524627,0.124385 -0.2477794,0.162008 -0.095318,0.03511 -0.2008374,0.05285 -0.3162226,0.05285 -0.1178939,0 -0.22437,-0.01677 -0.3196877,-0.04938 -0.095318,-0.03511 -0.1774547,-0.08466 -0.2451811,-0.149878 -0.072742,-0.06772 -0.1288064,-0.153592 -0.1689405,-0.256444 -0.040133,-0.102835 -0.060645,-0.21957 -0.060645,-0.350011 0,-0.125417 0.019554,-0.238413 0.057181,-0.338747 0.037625,-0.100344 0.089953,-0.186299 0.1576777,-0.259043 0.067725,-0.07023 0.1489963,-0.124385 0.2443145,-0.162011 0.097827,-0.03762 0.2070838,-0.0563 0.3274851,-0.0563 z"
         id="path1707"
         inkscape:export-xdpi="436.70001"
         inkscape:export-ydpi="436.70001"
         inkscape:connector-curvature="0"
         sodipodi:nodetypes="ccccscccccccscccscccscccccccccccccccccscccscccscccccccccscccscccsccccc" />
    </g>
    <text
       id="text1687-4"
       y="17.679012"
       x="23.338524"
       style="font-style:normal;font-variant:normal;font-weight:bold;font-stretch:normal;font-size:5.85309315px;line-height:1.25;font-family:'Avenir Next LT Pro';-inkscape-font-specification:'Avenir Next LT Pro Bold';letter-spacing:0px;word-spacing:0px;fill:#ffffff;fill-opacity:1;stroke:#808080;stroke-width:0.1;stroke-miterlimit:4;stroke-dasharray:none;stroke-opacity:1"
       xml:space="preserve"><tspan
         style="font-style:normal;font-variant:normal;font-weight:bold;font-stretch:normal;font-family:'Avenir Next LT Pro';-inkscape-font-specification:'Avenir Next LT Pro Bold';fill:#ffffff;fill-opacity:1;stroke:#808080;stroke-width:0.1;stroke-miterlimit:4;stroke-dasharray:none;stroke-opacity:1"
         y="17.679012"
         x="23.338524"
         id="tspan1685-1"
         sodipodi:role="line">OCTOS</tspan></text>
  </g>
</svg>
